<svg width="1000" height="629" viewBox="0 0 1000 629" fill="none" xmlns="http://www.w3.org/2000/svg">
<path fill-rule="evenodd" clip-rule="evenodd" d="M360.678 522.773C369.93 522.879 373.472 522.667 373.314 514.367L373.102 122.133C373.525 104.317 374.16 102.995 360.467 104.422C28.1863 138.84 -33.8816 476.513 360.678 522.72M876.096 149.202C838.929 137.042 772.843 117.534 715.057 109.603C702.58 107.912 693.487 106.643 680.64 106.167C666.894 105.638 667.581 106.061 668.004 123.825L667.793 512.781C667.581 521.028 669.643 521.451 684.552 520.024C757.141 514.631 920.188 474.927 983.102 443.47C994.892 437.073 1008.16 432.896 993.623 450.29C982.256 463.718 967.294 476.196 959.47 482.751C705.012 687.565 364.908 637.128 192.767 565.121C-12.4169 481.482 -108.374 226.602 185.365 70.2162C358.352 -24.1017 734.037 -31.609 907.817 98.3424C938.851 121.552 953.549 138.047 958.518 160.305C962.008 182.774 957.672 176.8 946.464 173.469C939.433 171.196 922.938 165.486 916.858 163.107C899.464 156.71 892.168 154.436 875.99 149.202" fill="white"/>
<path fill-rule="evenodd" clip-rule="evenodd" d="M360.673 522.775C369.925 522.881 373.468 522.67 373.256 514.369L373.045 122.136C373.468 104.319 374.102 103.05 360.409 104.425C28.1287 138.842 -33.9392 476.515 360.62 522.722" fill="#E1002A"/>
</svg>
